<?xml version="1.0" standalone="no"?>
<!DOCTYPE svg PUBLIC "-//W3C//DTD SVG 20010904//EN"
 "http://www.w3.org/TR/2001/REC-SVG-20010904/DTD/svg10.dtd">
<svg version="1.0" xmlns="http://www.w3.org/2000/svg"
 width="2500.000000pt" height="2500.000000pt" viewBox="0 0 2500.000000 2500.000000"
 preserveAspectRatio="xMidYMid meet">
<metadata>
Created by potrace 1.11, written by Peter Selinger 2001-2013
</metadata>
<g transform="translate(0.000000,2500.000000) scale(0.100000,-0.100000)"
fill="#000000" stroke="none">
<path d="M17470 21050 c-233 -49 -654 -136 -940 -195 -91 -19 -239 -50 -330
-69 -91 -19 -244 -50 -340 -70 -96 -20 -308 -63 -470 -96 -162 -34 -349 -72
-415 -85 -278 -56 -460 -96 -468 -104 -5 -5 -4 -32 2 -62 6 -30 25 -119 41
-199 17 -80 53 -253 80 -385 27 -132 103 -505 170 -830 67 -324 137 -666 156
-760 19 -93 47 -231 63 -305 43 -199 59 -277 195 -945 69 -335 145 -707 170
-825 24 -118 56 -271 70 -340 15 -69 42 -199 61 -290 19 -91 57 -275 85 -410
27 -135 82 -400 121 -590 39 -190 74 -356 76 -370 7 -36 97 -476 138 -670 19
-91 48 -232 65 -315 37 -180 270 -1313 310 -1508 16 -76 34 -144 40 -152 8
-10 21 -10 53 -3 23 5 65 13 92 18 28 5 172 34 320 65 254 53 865 178 1290
265 105 22 300 62 435 90 326 68 691 144 875 181 82 17 153 35 156 40 3 5 -21
139 -53 297 -112 545 -147 718 -193 937 -25 121 -59 285 -75 365 -16 80 -39
188 -50 240 -12 52 -30 138 -40 190 -10 52 -49 239 -85 415 -36 176 -72 352
-80 390 -8 39 -42 203 -75 365 -34 162 -79 383 -101 490 -21 107 -50 245 -63
305 -25 115 -29 131 -151 730 -139 681 -225 1099 -260 1265 -62 295 -175 840
-205 990 -20 101 -137 671 -270 1310 -21 102 -59 286 -84 410 -49 239 -58 271
-78 269 -7 -1 -114 -23 -238 -49z"/>
<path d="M12450 20014 c-268 -56 -376 -78 -815 -169 -395 -82 -747 -153 -855
-175 -52 -10 -216 -44 -365 -75 -422 -88 -639 -133 -778 -162 -75 -15 -131
-32 -134 -39 -5 -12 106 -560 362 -1789 53 -256 231 -1123 250 -1220 8 -38 25
-123 39 -188 14 -65 28 -133 31 -150 3 -18 29 -140 56 -272 28 -132 53 -253
56 -270 2 -16 8 -46 14 -66 5 -20 29 -134 53 -255 25 -120 84 -408 131 -639
48 -231 104 -505 125 -610 21 -104 60 -289 85 -410 76 -361 144 -691 175 -845
16 -80 55 -266 85 -415 31 -148 65 -313 75 -365 10 -52 44 -216 75 -365 79
-376 128 -614 180 -869 25 -121 51 -223 58 -228 6 -4 21 -5 32 -2 11 2 97 20
190 39 94 19 256 52 360 74 308 64 563 117 1025 211 437 90 972 200 1065 219
44 10 238 50 463 97 40 9 76 22 78 29 3 8 -6 71 -21 142 -33 159 -104 507
-155 758 -82 399 -171 833 -261 1260 -21 105 -84 408 -139 675 -101 495 -140
685 -211 1030 -146 702 -203 980 -284 1375 -116 563 -173 842 -215 1045 -36
169 -88 424 -185 890 -20 96 -49 240 -65 320 -16 80 -55 267 -85 415 -31 149
-74 356 -95 460 -115 563 -121 588 -136 591 -5 1 -124 -22 -264 -52z"/>
<path d="M7515 18995 c-88 -18 -241 -49 -340 -69 -99 -21 -288 -59 -420 -86
-132 -27 -361 -74 -510 -105 -148 -31 -344 -71 -435 -90 -91 -19 -275 -57
-410 -85 -135 -28 -391 -81 -570 -118 -319 -66 -325 -67 -328 -92 -1 -14 49
-277 113 -585 64 -308 124 -605 135 -660 11 -55 31 -152 45 -215 27 -121 64
-303 219 -1060 52 -256 121 -586 151 -735 71 -339 116 -556 199 -960 36 -176
93 -453 126 -615 34 -162 79 -383 100 -490 22 -107 51 -247 65 -310 50 -236
95 -449 119 -570 24 -117 135 -663 246 -1205 27 -132 68 -328 90 -435 63 -300
137 -654 181 -875 38 -183 52 -235 64 -235 4 0 190 38 665 135 91 19 275 57
410 85 464 97 526 109 940 194 470 96 780 160 1018 210 90 18 168 38 174 44
11 11 9 27 -97 537 -108 517 -164 793 -250 1210 -114 559 -159 776 -264 1280
-22 105 -103 498 -180 875 -77 377 -159 773 -181 880 -80 382 -218 1049 -235
1135 -25 126 -113 554 -175 855 -103 496 -118 568 -160 770 -22 107 -47 227
-55 265 -7 39 -63 312 -124 609 -61 296 -111 540 -111 542 0 9 -66 0 -215 -31z"/>
<path d="M18950 11189 c-1028 -212 -1248 -258 -1545 -319 -132 -28 -294 -61
-360 -75 -66 -13 -264 -54 -440 -90 -176 -36 -363 -74 -415 -85 -90 -18 -363
-75 -770 -160 -175 -36 -814 -168 -1290 -265 -316 -65 -580 -119 -800 -165
-205 -43 -270 -57 -940 -194 -228 -47 -536 -110 -685 -141 -148 -31 -344 -71
-435 -90 -91 -18 -286 -59 -435 -90 -148 -31 -301 -62 -340 -70 -38 -8 -212
-43 -385 -79 -173 -36 -349 -72 -390 -80 -41 -9 -217 -45 -390 -81 -173 -35
-371 -76 -440 -90 -69 -14 -165 -34 -215 -45 -82 -18 -948 -196 -1481 -304
-121 -25 -249 -51 -285 -60 -35 -8 -91 -20 -124 -26 -114 -21 -250 -52 -266
-61 -17 -8 -5 -80 70 -424 12 -57 41 -198 111 -542 60 -296 67 -323 85 -323 7
0 67 12 132 26 65 14 204 43 308 64 190 39 1125 231 1625 334 146 30 297 61
335 70 39 8 180 38 315 65 604 123 1094 223 1200 246 127 27 403 85 435 91 11
2 108 22 215 44 107 23 303 63 435 90 288 58 1204 247 1580 325 149 31 344 72
435 90 521 106 1332 273 2085 430 121 25 274 57 340 70 66 13 253 52 415 85
376 78 565 117 872 179 137 28 267 55 289 61 23 6 65 15 93 20 28 5 193 38
366 74 173 36 581 119 905 186 325 66 628 129 675 139 47 11 111 25 143 31 32
6 60 17 63 23 4 11 -59 335 -105 547 -11 47 -27 126 -36 175 -10 50 -26 128
-37 175 -11 47 -22 96 -24 110 -2 14 -9 45 -14 70 -5 25 -12 56 -14 70 -17
104 -29 141 -44 139 -4 -1 -374 -77 -822 -170z"/>
<path d="M19925 9244 c-88 -18 -272 -56 -410 -85 -298 -60 -678 -139 -1015
-209 -320 -66 -1355 -279 -1630 -335 -230 -47 -389 -80 -700 -145 -295 -62
-378 -79 -455 -95 -321 -65 -653 -133 -880 -180 -148 -31 -344 -71 -435 -90
-91 -18 -273 -56 -405 -83 -132 -28 -517 -107 -855 -177 -765 -157 -879 -181
-1215 -250 -148 -31 -344 -72 -435 -90 -91 -19 -286 -59 -435 -90 -148 -31
-313 -65 -365 -75 -52 -10 -228 -46 -390 -80 -162 -33 -380 -79 -485 -100
-104 -22 -278 -58 -385 -80 -107 -22 -303 -63 -435 -90 -582 -119 -1375 -282
-1435 -295 -36 -8 -144 -30 -240 -50 -266 -54 -285 -60 -285 -77 0 -15 29 -50
195 -237 379 -429 893 -911 1300 -1221 46 -36 92 -72 100 -80 9 -8 43 -33 74
-55 32 -22 76 -54 99 -71 255 -189 624 -418 965 -600 151 -80 440 -221 519
-253 27 -11 86 -36 133 -56 190 -81 468 -181 720 -258 312 -96 848 -210 1130
-241 268 -29 343 -35 530 -46 148 -8 667 -5 720 5 14 2 88 9 165 15 196 15
503 56 680 91 233 47 322 67 545 125 91 24 534 166 575 184 11 5 94 39 185 76
149 60 422 185 525 240 22 11 76 40 120 64 44 23 109 59 145 80 36 21 84 49
106 61 162 92 452 287 646 434 118 89 200 156 363 295 352 300 805 785 1085
1162 179 241 290 403 425 620 53 84 100 160 105 168 54 85 240 429 323 595
144 288 308 660 382 865 13 36 44 121 70 190 40 109 95 272 163 485 11 33 18
63 15 68 -7 12 -52 6 -218 -29z"/>
</g>
</svg>
